# AST/ASF file generated using VICON BodyLanguage
# -----------------------------------------------
:version 1.10
:name VICON
:units
  mass 1.0
  length 0.45
  angle deg
:documentation
   .ast/.asf automatically generated from VICON data using
   VICON BodyBuilder and BodyLanguage model FoxedUp or BRILLIANT.MOD
:root
   order TX TY TZ RX RY RZ
   axis XYZ
   position 0 0 0  
   orientation 0 0 0 
:bonedata
  begin
     id 1 
     name lhipjoint
     direction 0.702568 -0.596508 0.388042 
     length 2.56661 
     axis 0 0 0  XYZ
  end
  begin
     id 2 
     name lfemur
     direction 0.34202 -0.939693 0  
     length 6.58374  
     axis 0 0 20  XYZ
    dof rx ry rz
    limits (-160.0 20.0)
           (-70.0 70.0)
           (-60.0 70.0)
  end
  begin
     id 3 
     name ltibia
     direction 0.34202 -0.939693 0   
     length 6.62538   
     axis 0 0 20   XYZ
    dof rx
    limits (-10.0 170.0)
  end
  begin
     id 4 
     name lfoot
     direction 0.10455 -0.287249 0.952133   
     length 2.26699   
     axis -90 7.62852e-016 20   XYZ
    dof rx rz
    limits (-45.0 90.0)
           (-70.0 20.0)
  end
  begin
     id 5 
     name ltoes
     direction 1.53572e-011 -4.22322e-011 1   
     length 1.12949   
     axis -90 7.62852e-016 20   XYZ
    dof rx
    limits (-90.0 20.0)
  end
  begin
     id 6 
     name rhipjoint
     direction -0.728055 -0.574632 0.373811   
     length 2.66432  
     axis 0 0 0  XYZ 
  end
  begin
     id 7 
     name rfemur
     direction -0.34202 -0.939693 0   
     length 6.66732   
     axis 0 0 -20   XYZ
    dof rx ry rz
    limits (-160.0 20.0)
           (-70.0 70.0)
           (-70.0 60.0)
  end
  begin
     id 8 
     name rtibia
     direction -0.34202 -0.939693 0   
     length 6.59288   
     axis 0 0 -20   XYZ
    dof rx
    limits (-10.0 170.0)
 end
 begin
     id 9 
     name rfoot
     direction -0.119193 -0.327479 0.93731   
     length 2.38061  
     axis -90 -7.62852e-016 -20   XYZ
    dof rx rz
    limits (-45.0 90.0)
           (-20.0 70.0)
  end
  begin
     id 10 
     name rtoes
     direction -1.53547e-011 -4.21827e-011 1   
     length 1.17899   
     axis -90 -7.62852e-016 -20   XYZ
    dof rx
    limits (-90.0 20.0)
  end
  begin
     id 11 
     name lowerback
     direction -0.000416114 0.999912 -0.0132284   
     length 2.12109   
     axis 0 0 0   XYZ
    dof rx ry rz
    limits (-20.0 45.0)
           (-30.0 30.0)
           (-30.0 30.0)
  end
  begin
     id 12 
     name upperback
     direction -0.00136371 0.99809 0.0617608   
     length 2.10067   
     axis 0 0 0   XYZ
    dof rx ry rz
    limits (-20.0 45.0)
           (-30.0 30.0)
           (-30.0 30.0)
  end
  begin
     id 13 
     name thorax
     direction -3.43026e-005 0.997776 0.0666515   
     length 2.10618   
     axis 0 0 0   XYZ
    dof rx ry rz
    limits (-20.0 45.0)
           (-30.0 30.0)
           (-30.0 30.0)
  end
  begin
     id 14 
     name lowerneck
     direction 0.0398646 0.998418 0.0396592   
     length 1.83817   
     axis 0 0 0   XYZ
    dof rx ry rz
    limits (-20.0 45.0)
           (-30.0 30.0)
           (-30.0 30.0)
  end
  begin
     id 15 
     name upperneck
     direction -0.0367268 0.961527 -0.272244   
     length 1.81975   
     axis 0 0 0   XYZ
    dof rx ry rz
    limits (-20.0 45.0)
           (-30.0 30.0)
           (-30.0 30.0)
  end
  begin
     id 16
     name head
     direction -0.0182665 0.99536 -0.0944669  
     length 1.86026  
     axis 0 0 0   XYZ
    dof rx ry rz
    limits (-20.0 45.0)
           (-30.0 30.0)
           (-30.0 30.0)
  end
  begin
     id 17 
     name lclavicle
     direction 0.924239 0.361045 0.124212  
     length 3.26878  
     axis 0 0 0   XYZ
    dof ry rz
    limits (-20.0 10.0)
           (0.0 20.0)
  end
  begin
     id 18 
     name lhumerus
     direction 1 -4.48968e-011 -2.56583e-027   
     length 4.58538   
     axis 180 -30 -90   XYZ
    dof rx ry rz
    limits (-60.0 90.0)
           (-90.0 90.0)
           (-90.0 90.0)
  end
  begin
     id 19
     name lradius
     direction 1 -4.4898e-011 -5.50375e-027   
     length 2.68935   
     axis 180 -30 -90   XYZ
    dof rx
    limits (-10.0 170.0)
  end
  begin
     id 20
     name lwrist
     direction 1 -4.48939e-011 -1.48955e-026   
     length 1.34468   
     axis 9.0955e-015 90 90   XYZ
    dof ry
    limits (-180.0 0.0)
 end
  begin
     id 21 
     name lhand
     direction 1 -4.48936e-011 -2.97907e-026   
     length 0.585058   
     axis 1.90115e-014 90 90   XYZ
    dof rx rz
    limits (-90.0 90.0)
           (-45.0 45.0)
  end
  begin
     id 22 
     name lfingers
     direction 1 -4.49082e-011 -5.96235e-026   
     length 0.471689   
     axis 3.80223e-014 90 90   XYZ
    dof rx
    limits (0.0 90.0)
  end
  begin
     id 23
     name lthumb
     direction 0.707107 -6.3489e-011 0.707107   
     length 0.677253   
     axis -90 45 -3.84942e-014   XYZ
    dof rx rz
    limits (-45.0 45.0)
           (-45.0 45.0)
  end
  begin
     id 24 
     name rclavicle
     direction -0.923098 0.371783 0.0983239   
     length 3.19656  
     axis 0 0 0   XYZ 
    dof ry rz
    limits (-10.0 20.0)
           (-20.0 0.0)
  end
  begin
     id 25 
     name rhumerus
     direction -1 -4.48976e-011 -2.5492e-027  
     length 4.4745   
     axis 180 30 90   XYZ
    dof rx ry rz
    limits (-90.0 60.0)
           (-90.0 90.0)
           (-90.0 90.0)
  end
  begin
     id 26 
     name rradius
     direction -1 -4.48941e-011 -4.36555e-027   
     length 2.93896   
     axis 180 30 90   XYZ
    dof rx
    limits (-10.0 170.0)
  end
  begin
     id 27 
     name rwrist
     direction -1 -4.49044e-011 -1.49032e-026   
     length 1.46948   
     axis 9.0955e-015 -90 -90   XYZ
    dof ry
    limits (-180.0 0.0)
  end
  begin
     id 28
     name rhand
     direction -1 -4.48826e-011 -2.97749e-026   
     length 0.405092   
     axis 1.90115e-014 -90 -90   XYZ
    dof rx rz
    limits (-90.0 90.0)
           (-45.0 45.0)
  end
  begin
     id 29
     name rfingers
     direction -1 -4.49209e-011 -5.96602e-026   
     length 0.326596   
     axis 3.80223e-014 -90 -90   XYZ
    dof rx
    limits (0.0 90.0)
  end
  begin
     id 30
     name rthumb
     direction -0.707107 -6.34776e-011 0.707107   
     length 0.468928   
     axis -90 -45 3.84942e-014   XYZ
    dof rx rz
    limits (-45.0 45.0)
           (-45.0 45.0)
  end
:hierarchy
  begin
    root lhipjoint rhipjoint lowerback
    lhipjoint lfemur
    lfemur ltibia
    ltibia lfoot
    lfoot ltoes
    rhipjoint rfemur
    rfemur rtibia
    rtibia rfoot
    rfoot rtoes
    lowerback upperback
    upperback thorax
    thorax lowerneck lclavicle rclavicle
    lowerneck upperneck
    upperneck head
    lclavicle lhumerus
    lhumerus lradius
    lradius lwrist
    lwrist lhand lthumb
    lhand lfingers
    rclavicle rhumerus
    rhumerus rradius
    rradius rwrist
    rwrist rhand rthumb
    rhand rfingers
  end

#!OML:ASF H:\Punching\Project 1\Capture day 1\Session 1\female.ASF
:FULLY-SPECIFIED
:DEGREES
114
root -1.63236 14.98 -3.58643 10.9911 -17.8509 -2.90176
lowerback -7.1581 -1.58793 4.25635
upperback -8.32591 -2.27795 2.16041
thorax -4.73859 -1.3345 -0.193169
lowerneck -10.5202 4.6137 6.9828
upperneck 41.2026 8.55735 -9.10446
head 17.8084 3.27556 -4.02386
rclavicle -2.44505e-014 3.49861e-014
rhumerus -10.3549 26.9352 -76.8075
rradius 134.879
rwrist -18.3346
rhand -24.612 3.70027
rfingers 7.12502
rthumb 1.88627 -26.2711
lclavicle -2.44505e-014 3.49861e-014
lhumerus -8.75311 -13.4558 68.4691
lradius 139.38
lwrist -2.36426
lhand -25.8787 1.49138
lfingers 7.12502
lthumb 0.662891 31.4701
rfemur -9.57364 2.83168 25.116
rtibia 34.2212
rfoot -32.7418 -26.0925
rtoes 0.477103
lfemur -39.7166 -16.8557 -0.591282
ltibia 38.9239
lfoot -16.6874 29.0868
ltoes 16.9939
115
root -1.62692 14.9826 -3.59029 11.0534 -17.8383 -2.88578
lowerback -7.09099 -1.57338 4.32246
upperback -8.29836 -2.25785 2.14674
thorax -4.74973 -1.32799 -0.241963
lowerneck -10.3562 4.95778 7.36421
upperneck 41.2643 9.09961 -9.30033
head 17.9265 3.54114 -4.09426
rclavicle -9.93923e-017 -1.19271e-014
rhumerus -10.3008 27.2857 -76.8987
rradius 134.619
rwrist -18.0046
rhand -24.5675 3.65855
rfingers 7.12502
rthumb 1.92931 -26.3125
lclavicle -9.93923e-017 -1.19271e-014
lhumerus -8.84508 -13.348 68.329
lradius 139.527
lwrist -2.45668
lhand -25.8729 1.59057
lfingers 7.12502
lthumb 0.668525 31.5693
rfemur -9.62198 2.74045 25.0672
rtibia 34.137
rfoot -32.7209 -26.0262
rtoes 0.509533
lfemur -39.7759 -15.7064 -1.01042
ltibia 38.9618
lfoot -15.8374 28.1989
ltoes 16.3516
116
root -1.62109 14.9855 -3.59467 11.1205 -17.8023 -2.8637
lowerback -7.01088 -1.55939 4.38788
upperback -8.26588 -2.23785 2.12503
thorax -4.76313 -1.32162 -0.298449
lowerneck -10.2079 5.29254 7.74225
upperneck 41.2981 9.62916 -9.498
head 18.0364 3.80083 -4.16473
rclavicle -1.3418e-014 1.19271e-015
rhumerus -10.2349 27.6263 -76.9749
rradius 134.361
rwrist -17.7152
rhand -24.5921 3.6207
rfingers 7.12502
rthumb 1.90549 -26.3505
lclavicle -1.3418e-014 1.19271e-015
lhumerus -8.94503 -13.165 68.1525
lradius 139.65
lwrist -2.48533
lhand -25.8578 1.61169
lfingers 7.12502
lthumb 0.683041 31.5903
rfemur -9.67682 2.6312 25.0132
rtibia 34.0511
rfoot -32.703 -25.9579
rtoes 0.532654
lfemur -39.8685 -14.4551 -1.47247
ltibia 39.0174
lfoot -14.9631 27.1852
ltoes 15.7102
117
root -1.61502 14.9887 -3.59991 11.2052 -17.7301 -2.83907
lowerback -6.92237 -1.56284 4.45032
upperback -8.24494 -2.23971 2.11472
thorax -4.79385 -1.3261 -0.341268
lowerneck -10.0194 5.62566 8.08833
upperneck 41.2828 10.1691 -9.70521
head 18.1115 4.06008 -4.22884
rclavicle -3.11098e-014 1.98785e-014
rhumerus -10.1654 27.9994 -77.0376
rradius 134.133
rwrist -17.5145
rhand -24.6397 3.5382
rfingers 7.12502
rthumb 1.85957 -26.4334
lclavicle -3.11098e-014 1.98785e-014
lhumerus -9.10387 -12.8515 67.9539
lradius 139.736
lwrist -2.44696
lhand -25.8364 1.38772
lfingers 7.12502
lthumb 0.703786 31.3663
rfemur -9.75288 2.50969 24.9633
rtibia 33.9677
rfoot -32.6913 -25.902
rtoes 0.553297
lfemur -40.0198 -13.1007 -1.96897
ltibia 39.0971
lfoot -14.0652 26.0371
ltoes 15.0799
118
root -1.6085 14.9916 -3.60547 11.2936 -17.6269 -2.81467
lowerback -6.8191 -1.56631 4.51976
upperback -8.22032 -2.2409 2.09894
thorax -4.8295 -1.33075 -0.393201
lowerneck -9.83691 5.9451 8.43028
upperneck 41.231 10.6918 -9.92297
head 18.1696 4.31086 -4.29752
rclavicle 3.598e-014 3.57812e-015
rhumerus -10.0981 28.3615 -77.0891
rradius 133.949
rwrist -17.4242
rhand -24.7391 3.49666
rfingers 7.12502
rthumb 1.76354 -26.4758
lclavicle 3.598e-014 3.57812e-015
lhumerus -9.26814 -12.4392 67.7219
lradius 139.77
lwrist -2.32759
lhand -25.8079 0.930013
lfingers 7.12502
lthumb 0.731252 30.9085
rfemur -9.83394 2.381 24.9187
rtibia 33.8904
rfoot -32.6903 -25.8584
rtoes 0.578375
lfemur -40.2189 -11.6896 -2.49026
ltibia 39.2105
lfoot -13.1852 24.7881
ltoes 14.4963
119
root -1.60152 14.9943 -3.61135 11.3826 -17.4901 -2.79206
lowerback -6.69542 -1.5688 4.59649
upperback -8.19328 -2.23968 2.07863
thorax -4.87449 -1.33474 -0.453164
lowerneck -9.65792 6.24791 8.75821
upperneck 41.1447 11.1915 -10.1431
head 18.2078 4.55035 -4.36622
rclavicle -4.2043e-014 -1.98785e-015
rhumerus -10.0376 28.7082 -77.1295
rradius 133.816
rwrist -17.4502
rhand -24.8781 3.49455
rfingers 7.12502
rthumb 1.62932 -26.479
lclavicle -4.2043e-014 -1.98785e-015
lhumerus -9.43064 -11.9158 67.4568
lradius 139.729
lwrist -2.10607
lhand -25.7532 0.144656
lfingers 7.12502
lthumb 0.784125 30.123
rfemur -9.91824 2.25396 24.8838
rtibia 33.8227
rfoot -32.7031 -25.8367
rtoes 0.615499
lfemur -40.472 -10.2521 -3.02581
ltibia 39.3686
lfoot -12.3416 23.4606
ltoes 13.9881
120
root -1.59402 14.9962 -3.61723 11.4676 -17.319 -2.77185
lowerback -6.54937 -1.57066 4.68126
upperback -8.16158 -2.23631 2.05452
thorax -4.92757 -1.33818 -0.520822
lowerneck -9.49113 6.53537 9.06863
upperneck 41.0308 11.6688 -10.3611
head 18.2314 4.77851 -4.43217
rclavicle 4.75095e-014 -9.14409e-015
rhumerus -9.97738 29.0367 -77.1588
rradius 133.732
rwrist -17.5838
rhand -25.0421 3.57207
rfingers 7.12502
rthumb 1.47094 -26.4026
lclavicle 4.75095e-014 -9.14409e-015
lhumerus -9.60424 -11.3444 67.1682
lradius 139.667
lwrist -1.83589
lhand -25.6827 -0.662408
lfingers 7.12502
lthumb 0.852196 29.3156
rfemur -9.99899 2.1285 24.8602
rtibia 33.7663
rfoot -32.7344 -25.8449
rtoes 0.673206
lfemur -40.7804 -8.82164 -3.56707
ltibia 39.5839
lfoot -11.5538 22.0838
ltoes 13.5846
121
root -1.58607 14.9973 -3.62285 11.5474 -17.1173 -2.7582
lowerback -6.38049 -1.57187 4.77572
upperback -8.12642 -2.23067 2.02874
thorax -4.99031 -1.34109 -0.594833
lowerneck -9.3344 6.80585 9.34922
upperneck 40.895 12.119 -10.5639
head 18.2389 4.99288 -4.48814
rclavicle 5.46658e-015 -3.18055e-014
rhumerus -9.91735 29.3492 -77.18
rradius 133.691
rwrist -17.7978
rhand -25.1846 3.67496
rfingers 7.12502
rthumb 1.33329 -26.3006
lclavicle 5.46658e-015 -3.18055e-014
lhumerus -9.79753 -10.7558 66.8589
lradius 139.602
lwrist -1.52582
lhand -25.627 -1.42341
lfingers 7.12502
lthumb 0.905999 28.5544
rfemur -10.0726 2.01854 24.8538
rtibia 33.7211
rfoot -32.7833 -25.8939
rtoes 0.745871
lfemur -41.1465 -7.42915 -4.09845
ltibia 39.8675
lfoot -10.8296 20.6917
ltoes 13.2962
122
root -1.57771 14.9975 -3.62788 11.6197 -16.8887 -2.75361
lowerback -6.18449 -1.57118 4.87907
upperback -8.09063 -2.22052 2.00242
thorax -5.06798 -1.34244 -0.673319
lowerneck -9.18473 7.05983 9.6041
upperneck 40.7417 12.5417 -10.7513
head 18.2316 5.19406 -4.53526
rclavicle 7.85199e-014 -4.37326e-015
rhumerus -9.86537 29.6498 -77.1948
rradius 133.672
rwrist -18.0337
rhand -25.3224 3.88617
rfingers 7.12502
rthumb 1.2002 -26.0902
lclavicle 7.85199e-014 -4.37326e-015
lhumerus -10.0187 -10.177 66.5344
lradius 139.545
lwrist -1.18869
lhand -25.6028 -2.09399
lfingers 7.12502
lthumb 0.929368 27.8837
rfemur -10.1339 1.93268 24.8676
rtibia 33.6855
rfoot -32.8303 -26.0032
rtoes 0.784558
lfemur -41.5679 -6.10194 -4.60766
ltibia 40.2279
lfoot -10.1734 19.3163
ltoes 13.1367
123
root -1.56898 14.9966 -3.63174 11.688 -16.6364 -2.764
lowerback -5.97021 -1.56849 4.99642
upperback -8.05409 -2.20627 1.97842
thorax -5.1557 -1.34258 -0.756514
lowerneck -9.0428 7.2987 9.84272
upperneck 40.5714 12.9407 -10.9343
head 18.2126 5.38377 -4.58
rclavicle -4.35835e-014 -2.10712e-014
rhumerus -9.81132 29.9317 -77.2054
rradius 133.676
rwrist -18.2841
rhand -25.3876 4.08646
rfingers 7.12502
rthumb 1.1372 -25.8903
lclavicle -4.35835e-014 -2.10712e-014
lhumerus -10.2868 -9.64051 66.2046
lradius 139.526
lwrist -0.869396
lhand -25.6391 -2.58444
lfingers 7.12502
lthumb 0.894354 27.3934
rfemur -10.1809 1.87301 24.9066
rtibia 33.6548
rfoot -32.8697 -26.1737
rtoes 0.780511
lfemur -42.0451 -4.85696 -5.08196
ltibia 40.6696
lfoot -9.57446 17.9857
ltoes 13.0867
124
root -1.55999 14.9947 -3.63393 11.7532 -16.367 -2.79008
lowerback -5.74724 -1.56087 5.12753
upperback -8.01187 -2.18475 1.95467
thorax -5.24267 -1.33973 -0.846956
lowerneck -8.91696 7.52352 10.0679
upperneck 40.3849 13.3146 -11.1091
head 18.1835 5.56197 -4.62115
rclavicle -7.55382e-015 2.46493e-014
rhumerus -9.75228 30.1933 -77.2066
rradius 133.69
rwrist -18.5122
rhand -25.3969 4.29579
rfingers 7.12502
rthumb 1.12827 -25.681
lclavicle -7.55382e-015 2.46493e-014
lhumerus -10.5928 -9.16869 65.8689
lradius 139.542
lwrist -0.626265
lhand -25.7801 -2.86329
lfingers 7.12502
lthumb 0.758121 27.1151
rfemur -10.2111 1.84269 24.9694
rtibia 33.6242
rfoot -32.8999 -26.3972
rtoes 0.741145
lfemur -42.5722 -3.69746 -5.51997
ltibia 41.1903
lfoot -9.02233 16.7121
ltoes 13.1571
